<?xml version="1.0" encoding="utf-8"?>
<!-- Generator: Adobe Illustrator 27.5.0, SVG Export Plug-In . SVG Version: 6.00 Build 0)  -->
<svg version="1.1" id="_x3C_Layer_x3E_" xmlns="http://www.w3.org/2000/svg" xmlns:xlink="http://www.w3.org/1999/xlink" x="0px"
	 y="0px" viewBox="0 0 3000 2000" style="enable-background:new 0 0 3000 2000;" xml:space="preserve">
<rect style="fill:#FFFFFF;" width="3000" height="2000"/>
<g>
	<defs>
		<path id="SVGID_1_" d="M2764.711,1382.051c-53.113,592.189-573.803,626.604-1114.454,426.153
			c-194.178-71.973-469.403-76.669-763.607,42.615c-269.074,109.142-691.374-10.654-650.098-255.692
			c62.74-372.445,310.594-268.989,144.152-637.703c-121.358-268.84-56.36-650.994,312.797-567.125
			c276.859,62.905,395.253-60.703,437.137-126.437c29.008-45.527,67.417-85.313,113.83-115.452
			c350.411-227.518,539.811,206.53,733.258,100.075c364.273-200.446,730.563,3.693,544.179,330.825
			C2366.558,851.988,2795.107,1043.082,2764.711,1382.051z"/>
	</defs>
	<clipPath id="SVGID_00000158744623022475825480000017524696111724395175_">
		<use xlink:href="#SVGID_1_"  style="overflow:visible;"/>
	</clipPath>
	<g style="clip-path:url(#SVGID_00000158744623022475825480000017524696111724395175_);">
		<path style="fill:#D1EEF7;" d="M2764.711,1382.051c-53.113,592.189-573.803,626.604-1114.454,426.153
			c-194.178-71.973-469.403-76.669-763.607,42.615c-269.074,109.142-691.374-10.654-650.098-255.692
			c62.74-372.445,310.594-268.989,144.152-637.703c-121.358-268.84-56.36-650.994,312.797-567.125
			c276.859,62.905,395.253-60.703,437.137-126.437c29.008-45.527,67.417-85.313,113.83-115.452
			c350.411-227.518,539.811,206.53,733.258,100.075c364.273-200.446,730.563,3.693,544.179,330.825
			C2366.558,851.988,2795.107,1043.082,2764.711,1382.051z"/>
	</g>
	<g style="opacity:0.7;clip-path:url(#SVGID_00000158744623022475825480000017524696111724395175_);">
		<g>
			<path style="fill:#96CEDA;" d="M1939.095,2020.222c103.99,58.869,237.538,88,337.053,28.57
				c29.072-17.361,54.67-43.182,62.731-76.105c8.061-32.923-5.84-73.03-37.199-88.306c-27.14-13.22-62.478-7.051-85.003-27.21
				c-15.739-14.085-19.829-37.406-15.927-57.555s14.467-38.088,24.138-56.049c12.573-23.349,23.884-47.396,33.871-72.008
				c11.817-29.122,21.842-61.563,12.106-92.161c-9.736-30.599-47.578-54.667-74.985-39.109
				c-12.954,7.354-20.394,21.234-30.967,31.63c-10.573,10.396-28.7,16.95-40.457,7.068c-4.604-3.87-7.231-9.539-9.192-15.156
				c-15.123-43.326,1.265-90.876-9.335-135.359c-5.237-21.978-16.827-42.114-29.114-61.351
				c-55.423-86.781-136.317-167.251-237.484-184.121c-19.785-3.299-40.635-3.942-58.825,3.572
				c-34.514,14.256-50.871,55.368-47.145,92.82c3.726,37.452,23.431,71.883,44.375,103.853
				c20.944,31.97,43.919,63.496,55.684,99.551c-29.905-2.174-59.452-12.445-84.581-29.403c-13.017-8.784-26.199-19.804-41.698-20.02
				c-24.687-0.344-40.079,29.105-34.062,53.026c6.017,23.922,26.134,42.021,46.392,56.697
				c54.142,39.225,120.887,70.279,148.203,130.707c3.668,8.114,6.392,17.905,1.822,25.265c-3.138,5.054-9.038,7.697-14.846,9.289
				c-28.965,7.943-59.931-3.815-90.213-6.688c-7.014-0.665-14.283-0.814-20.739,1.712c-25.528,9.988-18.765,47.764-6.344,72.805
				C1784.197,1870.619,1840.905,1955.041,1939.095,2020.222L1939.095,2020.222z"/>
		</g>
	</g>
	<g style="clip-path:url(#SVGID_00000158744623022475825480000017524696111724395175_);">
		<g>
			<g>
				<path style="fill:#53CEBA;" d="M2055.539,2078.13c44.522-138.064,23.247-293.784-52.178-417.177
					c-21.345-34.92-47.109-67.003-76.543-95.431c-5.661-5.467-13.965,3.469-8.321,8.921
					c101.739,98.266,154.952,241.327,147.319,382.117c-2.191,40.416-9.758,80.38-22.176,118.889
					C2041.232,2082.916,2053.146,2085.553,2055.539,2078.13L2055.539,2078.13z"/>
			</g>
		</g>
		<g>
			<g>
				<path style="fill:#53CEBA;" d="M2076.871,1870.313c16.427-9.488,33.273-19.278,46.415-33.207
					c7.283-7.719,19.183-22.039,9.658-32.443c-22.244-24.298-55.254,42.945-62.427,54.131c-4.244,6.618,6.55,12.316,10.76,5.749
					c6.58-10.262,13.147-20.533,19.741-30.787c2.916-4.533,5.666-9.378,9.31-13.38c2.196-2.411,14.241-14.114,12.31-2.002
					c-0.657,4.122-8.13,10.369-11.043,13.209c-4.361,4.251-9.127,8.029-14.079,11.561c-8.682,6.193-17.938,11.53-27.163,16.858
					C2063.542,1863.937,2070.079,1874.235,2076.871,1870.313L2076.871,1870.313z"/>
			</g>
		</g>
		<g>
			<g>
				<path style="fill:#53CEBA;" d="M2063.398,1807.542c17.663-16.471,36.387-33.543,50.324-53.399
					c6.053-8.623,22.654-37.734,5.566-44c-17.053-6.253-31.147,11.398-39.018,23.62c-12.929,20.076-21.444,42.609-25.963,66.005
					c-1.486,7.692,10.406,10.407,11.898,2.682c2.938-15.211,7.459-29.945,14.192-43.93c3.431-7.127,21.481-42.896,30.495-34.083
					c13.504,13.203-46.684,65.709-56.415,74.784C2048.723,1804.588,2057.686,1812.87,2063.398,1807.542L2063.398,1807.542z"/>
			</g>
		</g>
		<g>
			<g>
				<path style="fill:#53CEBA;" d="M2037.678,1731.583c18.924-15.723,35.122-34.305,47.829-55.396
					c7.791-12.932,25.664-40.344,6.617-52.09c-15.792-9.738-36.345,13.885-44.207,24.938c-14.863,20.9-19.87,46.41-22.541,71.434
					c-0.823,7.714,11.066,10.486,11.899,2.682c1.957-18.339,4.8-37.02,12.819-53.822c3.347-7.012,7.498-13.643,12.631-19.487
					c2.778-3.163,5.74-6.014,9.044-8.618c1.739-1.466,3.582-2.785,5.532-3.959c3.13-3.278,5.399-2.345,6.807,2.799
					c4.618,6.189,2.41,7.945-0.522,14.122c-1.762,3.711-3.709,7.347-5.726,10.926c-4.453,7.897-9.391,15.533-14.883,22.75
					c-9.997,13.136-21.534,24.859-34.22,35.399C2022.724,1728.275,2031.718,1736.535,2037.678,1731.583L2037.678,1731.583z"/>
			</g>
		</g>
		<g>
			<g>
				<path style="fill:#53CEBA;" d="M2000.816,1651.653c6.785-26.448,25.578-48.298,30.218-75.449
					c2.218-12.979,2.032-46.05-16.887-46.904c-19.386-0.875-32.632,20.79-34.862,37.586c-3.634,27.371,11.808,52.757,10.859,80
					c-0.273,7.835,11.915,7.238,12.187-0.577c0.666-19.132-6.165-36.505-9.691-55.017c-2.09-10.976-3.072-23.1,1.663-33.565
					c2.857-6.315,11.34-18.313,19.101-14.748c7.673,3.523,7.068,19.721,6.257,26.998c-1.033,9.256-4.116,18.086-7.908,26.532
					c-7.874,17.538-18.015,33.67-22.836,52.463C1986.966,1656.58,1998.866,1659.255,2000.816,1651.653L2000.816,1651.653z"/>
			</g>
		</g>
		<g>
			<g>
				<path style="fill:#53CEBA;" d="M1934.943,1575.611c1.902-24.932-5.089-49.064-16.35-71.14
					c-8.258-16.19-25.931-44.043-47.769-40.82c-25.196,3.719-5.894,35.986,0.695,47.607c13.396,23.627,30.798,44.695,51.016,62.784
					c5.856,5.239,14.179-3.68,8.321-8.92c-13.866-12.406-26.377-26.1-37.043-41.37c-5.46-7.816-10.466-15.962-14.947-24.379
					c-3.21-6.029-15.233-28.071-0.123-22.368c17.266,6.517,28.124,29.313,34.654,45.124c7.146,17.302,10.787,35.331,9.359,54.058
					C1922.162,1583.985,1934.352,1583.361,1934.943,1575.611L1934.943,1575.611z"/>
			</g>
		</g>
		<g>
			<g>
				<path style="fill:#53CEBA;" d="M1988.356,1644.938c-16.112-14.054-35.098-22.974-54.956-30.487
					c-11.325-4.285-33.115-14.339-37.912,3.821c-4.413,16.706,18.885,28.961,30.986,34.394c7.761,3.484,14.762,4.635,23.179,3.428
					c14.027-2.01,25.615-2.682,38.949,3.271c7.139,3.187,12.923-7.558,5.75-10.761c-11.101-4.957-22.871-7.633-35.086-6.442
					c-6.57,0.64-13.278,3.288-19.913,2.189c-6.899-1.142-13.976-5.662-19.758-9.432c-1.697-1.107-7.916-4.275-8.606-6.447
					c-4.012-12.621,7.219-6.727,10.443-5.563c6.619,2.39,13.202,4.907,19.681,7.656c14.101,5.982,27.332,13.183,38.922,23.292
					C1985.95,1659.019,1994.279,1650.105,1988.356,1644.938L1988.356,1644.938z"/>
			</g>
		</g>
		<g>
			<g>
				<path style="fill:#53CEBA;" d="M2032.313,1727.405c-15.545-9.026-31.693-18.298-49.712-21.162
					c-8.519-1.354-28.569-4.234-28.795,9.107c-0.203,11.939,18.86,24.211,27.773,28.81c14.244,7.349,30.166,1.994,44.711-1.763
					c7.603-1.964,3.905-13.59-3.689-11.628c-9.262,2.392-21.21,6.928-30.857,4.487c-8.69-2.199-24.474-13.659-26.17-22.818
					c-0.451,2.002-0.903,4.004-1.354,6.005c5.352-6.26,29.01,2.809,35.18,5.4c9.448,3.968,18.32,9.187,27.164,14.322
					C2033.368,1742.116,2039.089,1731.339,2032.313,1727.405L2032.313,1727.405z"/>
			</g>
		</g>
		<g>
			<g>
				<path style="fill:#53CEBA;" d="M2058.435,1807.679c-10.144-1.215-20.114-3.188-29.836-6.357
					c-5.722-1.865-11.261-4.154-16.676-6.766c-2.504-1.208-12.499-4.769-13.396-7.335c-4.709-13.473,25.908,1.641,29.583,3.977
					c8.761,5.57,16.073,12.866,22.168,21.232c4.605,6.32,14.943-0.158,10.31-6.517c-12.046-16.534-53.82-54.101-74.205-29.806
					c-21.285,25.368,55.358,41.792,69.369,43.471C2063.47,1820.502,2066.233,1808.614,2058.435,1807.679L2058.435,1807.679z"/>
			</g>
		</g>
		<g>
			<g>
				<path style="fill:#53CEBA;" d="M2065.648,1865.488c-9.594-3.311-18.953-7.182-28.015-11.76
					c-3.405-1.72-6.756-3.546-10.065-5.445c-3.446-1.979-12.516-4.917-10.113-9.064c4.708-8.125,35.704,26.502,39.925,31.267
					c5.212,5.885,13.484-3.091,8.321-8.92c-10.262-11.587-21.246-24.969-35.102-32.39c-7.94-4.252-23.061-8.672-28.77,1.512
					c-12.711,22.674,48.041,42.18,61.135,46.699C2070.375,1879.944,2072.998,1868.025,2065.648,1865.488L2065.648,1865.488z"/>
			</g>
		</g>
	</g>
	<g style="clip-path:url(#SVGID_00000158744623022475825480000017524696111724395175_);">
		<g>
			<path style="fill:#49B2A4;" d="M2489.635,1966.9c-74.644,35.868-168.436,49.897-234.719,4.417
				c-19.364-13.286-35.945-32.246-40.064-55.308c-4.119-23.062,7.293-50.08,29.692-59.189c19.386-7.884,43.587-2.029,60.085-14.904
				c11.527-8.996,15.398-24.888,13.592-38.955c-1.807-14.067-8.326-26.913-14.226-39.732c-7.67-16.666-14.435-33.756-20.257-51.176
				c-6.889-20.611-12.39-43.429-4.286-64.082c8.104-20.652,35.385-35.529,53.675-23.562c8.645,5.657,13.181,15.563,20.042,23.209
				c6.86,7.646,19.124,12.986,27.707,6.706c3.361-2.459,5.433-6.248,7.04-10.031c12.401-29.182,8.375-40.688,14.342-80.682
				c2.301-15.417,11.672-40.476,21.037-53.181c42.246-57.312,101.854-109.119,172.674-116.162c13.85-1.377,28.32-0.876,40.584,5.129
				c23.271,11.392,32.771,40.475,28.525,66.124c-4.247,25.65-19.426,48.492-35.354,69.581
				c-15.928,21.089-33.243,41.781-42.995,66.103c20.809-0.143,41.731-5.885,59.89-16.436c9.406-5.465,19.027-12.465,29.771-11.911
				c17.114,0.882,26.465,21.881,21.233,38.099c-5.231,16.218-19.97,27.783-34.654,36.982
				c-39.244,24.586-86.854,42.969-108.461,83.387c-2.901,5.427-5.223,12.053-2.386,17.334c1.948,3.626,5.917,5.716,9.869,7.077
				c19.708,6.788,41.678,0.087,62.78-0.521c4.887-0.141,9.929,0.086,14.288,2.12c17.237,8.043,10.873,33.778,1.156,50.477
				C2603.573,1870.79,2560.542,1926.418,2489.635,1966.9L2489.635,1966.9z"/>
		</g>
		<g>
			<g>
				<path style="fill:#53CEBA;" d="M2588.809,1486.264c-52.494,51.005-96.628,110.209-131.039,174.791
					c-34.084,63.968-58.563,133.068-72.386,204.219c-7.77,39.996-12.017,80.641-12.796,121.373
					c-0.078,4.064-6.385,3.771-6.308-0.298c1.395-72.942,14.133-145.546,37.206-214.744c23.181-69.521,56.703-135.677,99.43-195.232
					c24.331-33.914,51.648-65.642,81.583-94.728C2587.421,1478.809,2591.721,1483.434,2588.809,1486.264L2588.809,1486.264z"/>
			</g>
		</g>
	</g>
	<g style="clip-path:url(#SVGID_00000158744623022475825480000017524696111724395175_);">
		<g>
			<g>
				<path style="fill:#FDBAA0;" d="M684.152,1220.593c0,0-0.57-81.7,86.775-128.795c87.345-47.095,182.177-38.547,245.739-14.163
					c104.396,40.049,128.862,135.277,85.33,141.825c-24.224,3.644-59.038,62.473-47.369,72.698
					C1109.485,1340.229,708.05,1429.038,684.152,1220.593z"/>
				<g>
					<path style="fill:#FDBAA0;" d="M1232.23,1545.06c-20.137,8.63-59.542,23.596-100.31,36.77
						c-9.315,3.284-51.298,16.172-89.638,25.263c-0.513,0.114-1.027,0.228-1.543,0.362c-66.207,15.568-137.576,25.026-192.839,13.82
						c-0.318-0.031-32.491-8.78-68.884-26.828c-5.577-2.761-11.674-4.867-18.227-6.371c0,0,0,0-0.011,0.009
						c-54.443-12.481-139.968,17.693-192.084,37.988c-22.663,8.84-45.412,18.408-67.483,27.998l-31.821-327.922
						c30.06-8.645-201.177-55.945-164.617-65.806c107.448-29.045,309.715-81.639,403.456-112.579
						c0.852-0.707,93.685-28.308,124.595-50.635c340.652,382.067,132.944,149.262,203.163,227.841l36.38-23.342l12.431,78.086
						C1146.839,1449.311,1220.399,1531.786,1232.23,1545.06z"/>
				</g>
				<path style="fill:#E8A595;" d="M976.691,1471.675c51.501,70.212,153.444,157.337,212.891,71.481
					c59.446-85.856,88.444-283.527,6.568-333.06c-81.876-49.533-132.772-50.313-171.077-12.862
					c-38.305,37.451-101.986,125.282-118.109,140.359C890.84,1352.67,945.263,1428.829,976.691,1471.675z"/>
				<g>
					<g>
						<path style="fill:#E79780;" d="M768.316,1589.897c-35.555-24.101-61.182-61.549-70.483-103.519
							c-0.7-3.16,4.163-4.55,4.87-1.362c8.996,40.591,33.595,77.097,68.039,100.444
							C773.417,1587.274,771.009,1591.723,768.316,1589.897L768.316,1589.897z"/>
					</g>
				</g>
				<g>
					<g>
						<path style="fill:#E79780;" d="M709.814,1150.82c-18.81,38.119-30.664,79.655-34.67,121.983
							c-1.125,11.886-1.626,23.822-1.545,35.76c0.022,3.251-5.034,3.328-5.056,0.064c-0.292-43.165,7.285-86.335,22.383-126.781
							c4.251-11.388,9.072-22.551,14.451-33.452C706.821,1145.469,711.25,1147.909,709.814,1150.82L709.814,1150.82z"/>
					</g>
				</g>
				<g>
					<g>
						<g>
							<path style="fill:#384955;" d="M994.782,1754.604L994.782,1754.604c-12.181-7.395-16.098-23.411-8.703-35.592
								l450.948-742.855c7.395-12.181,23.411-16.097,35.592-8.703l0,0c12.181,7.395,16.098,23.411,8.703,35.592l-450.948,742.855
								C1022.98,1758.082,1006.963,1761.998,994.782,1754.604z"/>
						</g>
						<g style="opacity:0.2;">
							<circle style="fill:#FFFFFF;" cx="1657.482" cy="662.925" r="356.247"/>
						</g>
						<g>
							<path style="fill:#384955;" d="M1802.459,1013.826c-19.255,8.299-39.336,15.04-60.114,20.121
								c-97.265,23.783-197.971,8.266-283.565-43.694c-85.594-51.96-145.831-134.143-169.615-231.408
								c-23.783-97.265-8.266-197.971,43.694-283.565l0,0c107.265-176.699,338.28-233.183,514.975-125.921
								c85.594,51.96,145.83,134.143,169.613,231.408c23.784,97.265,8.266,197.971-43.694,283.565
								C1932.892,931.641,1873.335,983.273,1802.459,1013.826z M1348.777,484.942l15.918,9.663
								c-96.604,159.14-45.729,367.205,113.412,463.81c77.091,46.797,167.789,60.774,255.392,39.354
								c87.606-21.422,161.618-75.672,208.417-152.763c96.605-159.14,45.73-367.205-113.41-463.811
								c-159.142-96.605-367.208-45.728-463.811,113.41L1348.777,484.942z"/>
						</g>
					</g>
					<g>
						<g>
							<g>
								<path style="fill:#FF8D67;" d="M1640.555,527.428c24.872-26.219,65.577-26.406,94.073-6.559
									c28.63,19.941,46.999,63.601,3.049,77.339c-17.84,5.577-37.769,2.445-56.101,6.206
									c-21.153,4.339-41.195,14.067-57.868,27.774c-31.435,25.842-51.181,62.424-69.053,98.238
									c-23.477,47.046,52.095,78.051,75.468,31.214c10.764-21.57,22.188-44.717,39.784-61.686
									c20.13-19.412,43.492-15.615,69.203-19.06c60.614-8.121,112.43-58.232,107.24-121.948
									c-4.818-59.155-55.126-110.616-110.326-127.057c-59.168-17.623-118.116,1.286-159.943,45.378
									C1539.881,515.426,1604.695,565.229,1640.555,527.428L1640.555,527.428z"/>
							</g>
						</g>
						<g>
							<g>
								<path style="fill:#FF8D67;" d="M1534.352,884.411c48.56,20.085,79.855-55.35,31.214-75.468
									C1517.006,788.858,1485.711,864.293,1534.352,884.411L1534.352,884.411z"/>
							</g>
						</g>
						<g>
							<g>
								<path style="fill:#FFB5A1;" d="M1792.241,487.355c10.899,10.931,21.857,28.171,23.182,43.772
									c0.479,5.637,9.186,4.434,8.708-1.199c-1.532-18.038-13.992-36.974-26.492-49.511
									C1793.65,476.416,1788.299,483.401,1792.241,487.355L1792.241,487.355z"/>
							</g>
						</g>
						<g>
							<g>
								<path style="fill:#FFB5A1;" d="M1817.794,552.973c-0.433,4.299-0.866,8.599-1.299,12.898
									c-0.566,5.613,8.155,6.729,8.724,1.08c0.433-4.299,0.866-8.599,1.299-12.898
									C1827.083,548.44,1818.363,547.324,1817.794,552.973L1817.794,552.973z"/>
							</g>
						</g>
						<g>
							<g>
								<path style="fill:#FFB5A1;" d="M1571.198,729.698c-3.899,10.765-6.47,23.595,3.541,31.895
									c4.364,3.618,9.745-3.334,5.398-6.938c-6.558-5.437-3.222-14.962-0.818-21.598
									C1581.24,727.755,1573.129,724.367,1571.198,729.698L1571.198,729.698z"/>
							</g>
						</g>
						<g>
							<g>
								<path style="fill:#FFB5A1;" d="M1561.632,829.786c11.071,4.906,8.06,18.848,4.634,27.732
									c-2.032,5.269,6.081,8.648,8.121,3.359c5.297-13.734,6.529-32.155-9.396-39.212
									C1559.817,819.372,1556.461,827.495,1561.632,829.786L1561.632,829.786z"/>
							</g>
						</g>
						<g>
							<g>
								<path style="fill:#FF8D67;" d="M1560.135,459.106c-11.038,14.259-21.501,29.501-19.346,48.383
									c0.642,5.62,9.35,4.431,8.708-1.199c-1.872-16.4,8.084-29.525,17.576-41.786
									C1570.54,460.026,1563.599,454.632,1560.135,459.106L1560.135,459.106z"/>
							</g>
						</g>
						<g>
							<g>
								<path style="fill:#FF8D67;" d="M1755.641,696.24c16.188-2.096,34.282-7.627,47.76-16.946
									c4.666-3.226-0.676-10.209-5.317-6.999c-12.179,8.421-29.061,13.35-43.642,15.237
									C1748.834,688.259,1750.017,696.968,1755.641,696.24L1755.641,696.24z"/>
							</g>
						</g>
						<g>
							<g>
								<path style="fill:#FF8D67;" d="M1592.05,816.539c4.241,4.088,6.926,9.498,7.882,15.28c0.921,5.569,9.634,4.403,8.708-1.199
									c-1.354-8.192-5.236-15.279-11.192-21.02C1593.375,805.674,1588.018,812.652,1592.05,816.539L1592.05,816.539z"/>
							</g>
						</g>
						<g>
							<g>
								<path style="fill:#FF8D67;" d="M1600.001,849.084c-0.201,1.841-0.402,3.681-0.604,5.521
									c-0.25,2.283,1.432,4.712,3.822,4.902c2.346,0.186,4.635-1.374,4.902-3.822c0.201-1.84,0.403-3.681,0.604-5.521
									c0.25-2.283-1.432-4.712-3.822-4.902C1602.557,845.076,1600.268,846.636,1600.001,849.084L1600.001,849.084z"/>
							</g>
						</g>
					</g>
					<g>
						<g>
							<path style="fill:#51C6D4;" d="M1376.359,806.931c33.923,48.549,78.195,89.365,129.384,119.159
								c9.67,5.628,20.22-8.454,10.426-14.154c-50.042-29.127-92.93-68.54-126.095-116.005
								C1383.6,786.665,1369.892,797.676,1376.359,806.931L1376.359,806.931z"/>
						</g>
					</g>
					<g>
						<g>
							<path style="fill:#51C6D4;" d="M1539.499,939.585c13.793,7.2,29.278,9.737,44.688,7.859
								c11.251-1.371,8.805-18.782-2.418-17.414c-12.6,1.535-24.559-0.922-35.777-6.778
								C1535.962,918.015,1529.551,934.391,1539.499,939.585L1539.499,939.585z"/>
						</g>
					</g>
				</g>
				<path style="fill:#FDBAA0;" d="M838.924,1065.881c68.237-21.72,237.869-47.339,303.395-35.57
					c122.541,22.01,232.134-17.32,245.753-2.902c13.619,14.418,0.895,77.991-92.272,113.274
					c-91.883,34.797-178.258,11.772-196.375,22.064c-18.118,10.291-97.638,59.296-97.638,59.296S786.017,1082.721,838.924,1065.881z
					"/>
				<g>
					<path style="fill:#E79780;" d="M1004.114,1220.094c-17.706,13.551-33.555,29.423-46.839,47.346
						c-13.852,18.688-24.411,39.098-42.154,54.647c-16.33,14.311-35.274,26.178-54.31,36.541
						c-17.463,9.507-35.855,17.641-55.041,22.977c-21.42,5.957-43.588,8.297-65.718,5.734c-4.491-0.52-5.21,6.456-0.722,6.976
						c39.774,4.605,79.097-6.396,114.464-24.12c18.541-9.292,36.492-20.27,53.168-32.604c19.347-14.311,32.894-31.541,45.973-51.495
						c15.237-23.249,33.487-43.636,55.601-60.559C1012.123,1222.793,1007.697,1217.352,1004.114,1220.094L1004.114,1220.094z"/>
				</g>
				<g>
					<path style="fill:#FDBAA0;" d="M1085.761,1262.273c9.22-6.626,4.087-16.495,27.244-14.678
						c80.153-3.934,159.708,13.765,237.354,34.04c32.294,8.433,66.226,18.363,88.963,42.798
						c22.737,24.435,28.015,68.203,2.061,89.189c-19.159,15.491-46.659,13.252-71.073,9.93
						c-90.905-12.372-157.986-36.691-243.774-69.204c-22.163-8.4-41.985-22.961-51.143-44.821
						C1066.241,1287.682,1066.528,1276.094,1085.761,1262.273z"/>
					<path style="fill:#FDBAA0;" d="M1338.584,1386.031c34.047-6.581,68.805,19.078,92.427,44.465
						c23.622,25.386,29.106,70.859,2.141,92.662c-19.905,16.095-48.476,13.769-73.84,10.316
						c-94.445-12.854-144.079-50.517-233.208-84.297c-23.026-8.726-57.838-26.934-58.767-45.11
						c-2.56-50.127,66.169-47.081,168.332-11.68C1271.08,1404.657,1315.288,1390.534,1338.584,1386.031z"/>
					<path style="fill:#FDBAA0;" d="M1094.305,1439.241c8.065-3.022,82.845,6.682,139.197,39.437
						c23.438,13.624,47.901,28.757,61.589,52.501c13.688,23.745,11.072,58.404-11.987,68.697
						c-17.021,7.598-37.731-0.222-55.914-8.186c-67.703-29.653-61.519-25.136-122.242-69.064
						c-15.687-11.348-36.753-32.934-40.438-51.693C1060.827,1452.187,1077.481,1445.544,1094.305,1439.241z"/>
					<path style="fill:#FDBAA0;" d="M1110.025,1156.733c71.082-3.489,123.023-0.987,191.882,16.993
						c28.64,7.479,58.731,16.285,78.895,37.954c20.164,21.67,24.845,60.484,1.828,79.095c-16.991,13.739-41.379,11.753-63.03,8.806
						c-80.617-10.972-158.486-8.428-230.512-46.268C1008.827,1211.149,1089.488,1155.122,1110.025,1156.733z"/>
					<g>
						<path style="fill:#E79780;" d="M1374.874,1286.793c-53.653-13.659-107.913-24.866-162.603-33.494
							c-25.417-4.01-51.494-9.057-77.269-9.646c-21.727-0.497-44.093,5.593-58.141,23.16c-2.724,3.406,2.365,7.903,5.097,4.487
							c15.382-19.235,40.335-22.341,63.413-20.293c25.482,2.26,50.94,6.523,76.174,10.659
							c51.133,8.379,101.876,19.02,152.088,31.803C1377.864,1294.547,1379.1,1287.869,1374.874,1286.793L1374.874,1286.793z"/>
					</g>
					<g>
						<path style="fill:#E79780;" d="M1281.106,1165.497c-49.709-6.549-100.409-12.002-150.602-12.22
							c-20.307-0.088-41.094,3.338-57.268,16.494c-14.276,11.613-24.042,29.351-20.034,48.076
							c4.399,20.547,22.528,31.893,39.815,41.137c3.708,1.983,6.558-3.891,2.856-5.87c-19.46-10.406-41.685-25.616-36.404-51.128
							c5.203-25.132,31.36-38.841,54.803-41.423c26.336-2.902,53.995,0.537,80.297,2.509c28.526,2.139,56.982,5.109,85.343,8.845
							C1284.057,1172.464,1285.288,1166.049,1281.106,1165.497L1281.106,1165.497z"/>
					</g>
					<g>
						<path style="fill:#E79780;" d="M1420.665,1419.374c-18.281-14.657-42.691-14.26-64.911-16.214
							c-20.235-1.78-40.423-4.091-60.494-7.233c-38.668-6.054-76.809-15.09-115.098-23.108c-4.178-0.875-5.402,5.65-1.214,6.527
							c37.024,7.753,73.906,16.462,111.265,22.498c18.903,3.055,37.914,5.374,56.976,7.173c22.66,2.139,50.36,0.324,69.088,15.339
							C1419.605,1427.025,1424.001,1422.049,1420.665,1419.374L1420.665,1419.374z"/>
					</g>
					<g>
						<path style="fill:#E79780;" d="M1297.512,1531.504c-8.695-14.21-28.675-22.27-42.918-30.131
							c-17.551-9.686-35.322-18.985-53.306-27.842c-18.642-9.181-37.528-17.98-56.907-25.506
							c-13.615-5.287-28.31-11.091-43.042-12.015c-17.82-1.117-43.386,14.877-39.811,35.151c0.662,3.755,6.636,3.345,5.966-0.455
							c-3.269-18.539,21.583-30.53,37.116-28.364c14.243,1.986,28.103,7.414,41.373,12.726
							c34.514,13.815,67.826,30.851,100.439,48.636c7.141,3.895,14.25,7.85,21.301,11.907c9.048,5.206,19.216,10.064,24.816,19.216
							C1294.552,1538.121,1299.518,1534.781,1297.512,1531.504L1297.512,1531.504z"/>
					</g>
					<g>
						<path style="fill:#E79780;" d="M1230.906,1591.527c-25.407-10.573-49.808-23.914-73.374-38.064
							c-25.707-15.436-51.873-32.329-72.877-53.957c-7.439-7.66-16.376-17.578-17.162-28.799c-0.269-3.839-6.235-3.396-5.966,0.455
							c0.67,9.561,6.395,18.105,12.346,25.267c8.842,10.641,19.452,19.755,30.345,28.222c26.029,20.231,54.595,37.391,83.681,52.824
							c13.193,7,26.595,13.691,40.39,19.432C1231.828,1598.379,1234.469,1593.01,1230.906,1591.527L1230.906,1591.527z"/>
					</g>
					<g>
						<path style="fill:#E79780;" d="M1195.726,1376.415c-29.186-5.662-58.747-18.302-83.847-34.247
							c-21.556-13.694-53.066-45.008-29.922-70.867c2.919-3.262-2.184-7.743-5.097-4.487c-22.991,25.688-0.126,57.932,22.15,74.675
							c13.021,9.787,27.739,17.11,42.518,23.823c17.016,7.729,34.57,14.213,52.956,17.78
							C1198.77,1383.922,1200.027,1377.249,1195.726,1376.415L1195.726,1376.415z"/>
					</g>
					<path style="fill:#FFD1C3;" d="M1086.583,1181.548c12.123-6.733,26.836-6.964,39.401-5.401
						c6.797,0.846,13.848,2.31,20.013,5.675c6.089,3.323,7.351,8.49,7.724,16.57c0.528,11.456-2.413,40.632-14.462,43.343
						c-3.515,0.791-7.495,0.28-10.963,0.023c-12.807-0.949-26.041-3.529-37.316-10.608
						C1075.935,1221.702,1067.505,1195.803,1086.583,1181.548z"/>
					<path style="fill:#FFD1C3;" d="M1102.032,1268.548c13.023-4.381,27.315-1.906,39.184,1.935
						c6.421,2.078,12.969,4.81,18.298,9.244c5.263,4.38,5.499,9.681,4.32,17.678c-1.673,11.339-10.085,39.429-22.269,39.877
						c-3.554,0.131-7.311-1.101-10.62-1.99c-12.221-3.283-24.544-8.245-34.112-17.262
						C1084.064,1305.995,1080.84,1279.033,1102.032,1268.548z"/>
					<path style="fill:#FFD1C3;" d="M1094.689,1375.358c12.053-3.502,25.462-0.985,36.643,2.666
						c6.048,1.975,12.232,4.524,17.319,8.53c5.024,3.957,5.377,8.593,4.475,15.549c-1.28,9.863-8.436,34.19-19.804,34.277
						c-3.316,0.026-6.856-1.144-9.968-2.003c-11.495-3.172-23.127-7.813-32.288-15.928
						C1078.842,1407.62,1075.159,1383.989,1094.689,1375.358z"/>
					<path style="fill:#FFD1C3;" d="M1094.856,1449.52c10.391-2.172,20.849,1.155,29.303,5.317c4.573,2.252,9.157,5.029,12.6,9.021
						c3.401,3.943,2.891,8.123,0.963,14.278c-2.734,8.727-12.727,29.932-21.975,29.102c-2.698-0.242-5.372-1.573-7.752-2.59
						c-8.791-3.759-17.441-8.844-23.487-16.841C1076.441,1477.134,1077.511,1455.684,1094.856,1449.52z"/>
				</g>
				<path style="fill:#FFD1C3;" d="M1388.072,1027.409c0,0-8.32,20.881-32.103,20.94c-23.783,0.058-40.048-0.662-40.048-0.662
					l-10.839-15.868C1305.081,1031.819,1359.464,1015.234,1388.072,1027.409z"/>
			</g>
		</g>
		<g>
			<g>
				<g>
					<path style="fill:#49B2A4;" d="M-170.284,1217.683l78.736,682.498c7.828-2.074,102.511-34.52,223.419-77.397
						c213.142-75.573,507.52-183.581,550.404-215.136c4.269-4.95,6.323-10.453,7.02-16.062l-0.031-0.273
						c4.77-42.579-76.795-106.231-92.963-153.123c-35.725-102.202-3.014-175.313-2.648-223.424
						c0.091-3.879,2.89-25.461,2.482-29.002c-3.533-28.291-75.419,5.165-151.421,10.711
						C421.754,1197.938,21.265,1211.359-170.284,1217.683z"/>
				</g>
			</g>
			<g>
				<g>
					<path style="fill:#63D5C2;" d="M660.305,1542.111c-1.935,23.058-19.126,39.283-39.168,47.465
						c-28.203,11.513-58.779,4.457-88.136,5.255c-36.055,0.981-67.375,19.384-100.262,32.384
						c-31.662,12.516-65.247,17.968-99.099,16.139c-5.668-0.306-5.425-9.392,0.279-9.084c31.922,1.724,63.602-3.131,93.584-14.648
						c29.299-11.254,57.232-27.813,88.586-32.421c28.976-4.259,58.53,3.817,87.313-1.728c21.732-4.187,45.978-18.789,48.063-43.63
						C651.95,1536.047,660.796,1536.262,660.305,1542.111L660.305,1542.111z"/>
				</g>
			</g>
			<g>
				<g>
					<path style="fill:#63D5C2;" d="M393.845,1601.606c-4.711,0.233-9.422,0.467-14.133,0.7c-5.679,0.281-5.388-8.803,0.279-9.084
						c4.711-0.233,9.422-0.467,14.133-0.7C399.802,1592.241,399.512,1601.326,393.845,1601.606L393.845,1601.606z"/>
				</g>
			</g>
			<g>
				<g>
					<path style="fill:#63D5C2;" d="M360.74,1574.141c-1.177,0.059-2.355,0.117-3.533,0.175c-2.315,0.115-4.451-2.36-4.281-4.676
						c0.192-2.611,2.079-4.285,4.56-4.408c1.178-0.058,2.356-0.117,3.534-0.175c2.315-0.115,4.451,2.36,4.281,4.676
						C365.108,1572.344,363.221,1574.019,360.74,1574.141L360.74,1574.141z"/>
				</g>
			</g>
			<g>
				<g>
					<path style="fill:#63D5C2;" d="M520.959,1282.154c-20.15-20.01-50.78-10.802-73.21-0.565
						c-25.585,11.677-49.095,22.27-77.69,20.831c-26.35-1.326-51.775-9.638-77.169-16.234c-28.891-7.505-58.005-11.22-87.78-7.593
						c-33.67,4.101-65.883,16.227-94.333,35.165c-4.79,3.188-9.049-4.771-4.291-7.938c50.842-33.843,112.879-45.243,171.982-32.437
						c28.77,6.234,56.813,16.929,86.262,19.555c14.914,1.33,29.807,0.295,44.156-4.311c16.075-5.16,30.81-13.887,46.495-20.093
						c23.469-9.287,52.5-12.012,71.95,7.304C531.43,1279.909,525.04,1286.207,520.959,1282.154L520.959,1282.154z"/>
				</g>
			</g>
			<g>
				<g>
					<path style="fill:#63D5C2;" d="M501.437,1383.01c-8.287,5.787-17.091,10.265-26.504,13.756
						c-5.349,1.984-7.389-6.858-2.08-8.826c8.638-3.204,16.703-7.567,24.294-12.867
						C501.863,1371.778,506.113,1379.745,501.437,1383.01L501.437,1383.01z"/>
				</g>
			</g>
			<g>
				<g>
					<path style="fill:#63D5C2;" d="M468.16,1378.669c-5.013,1.585-10.026,3.169-15.039,4.754c-5.446,1.722-7.508-7.111-2.08-8.826
						c5.013-1.585,10.026-3.169,15.039-4.754C471.525,1368.122,473.587,1376.954,468.16,1378.669L468.16,1378.669z"/>
				</g>
			</g>
			<g>
				<g>
					<path style="fill:#63D5C2;" d="M547.857,1620.411c-4.368-0.46-8.736-0.92-13.105-1.381c-5.62-0.592-5.401-9.682,0.278-9.084
						c4.368,0.46,8.737,0.92,13.105,1.381C553.756,1611.92,553.537,1621.01,547.857,1620.411L547.857,1620.411z"/>
				</g>
			</g>
			<g>
				<g>
					<path style="fill:#63D5C2;" d="M106.893,1671.128c3.846-2.736,8.026-4.722,12.486-6.154c5.438-1.746,7.497,7.086,2.08,8.826
						c-3.703,1.189-7.087,2.998-10.275,5.266c-1.966,1.398-4.937,0.238-6.013-1.757
						C103.919,1674.988,104.92,1672.531,106.893,1671.128L106.893,1671.128z"/>
				</g>
			</g>
			<g>
				<g>
					<path style="fill:#63D5C2;" d="M278.332,1698.422c-5.357,2.756-10.714,5.511-16.07,8.267c-5.086,2.616-9.39-5.315-4.291-7.938
						c5.357-2.755,10.714-5.511,16.07-8.267C279.126,1687.868,283.43,1695.799,278.332,1698.422L278.332,1698.422z"/>
				</g>
			</g>
			<g>
				<g>
					<path style="fill:#63D5C2;" d="M240.77,1544.31c-5.104,0.253-10.207,0.505-15.311,0.758c-5.679,0.281-5.388-8.803,0.279-9.084
						c5.104-0.253,10.208-0.505,15.311-0.758C246.727,1534.944,246.436,1544.029,240.77,1544.31L240.77,1544.31z"/>
				</g>
			</g>
			<g>
				<g>
					<path style="fill:#63D5C2;" d="M255.694,1532.259c-2.401-0.852-4.726-1.053-7.208-0.473c-5.546,1.296-7.643-7.527-2.08-8.826
						c3.936-0.919,8.01-0.765,11.83,0.59c2.254,0.799,3.672,3.229,2.965,5.651C260.535,1531.479,257.959,1533.063,255.694,1532.259
						L255.694,1532.259z"/>
				</g>
			</g>
			<g>
				<g>
					<path style="fill:#63D5C2;" d="M237.555,1393.965c-6.267,1.105-11.996,3.247-17.467,6.584
						c-4.909,2.994-9.183-4.954-4.291-7.938c6.09-3.715,12.699-6.242,19.677-7.472
						C241.054,1384.156,243.177,1392.974,237.555,1393.965L237.555,1393.965z"/>
				</g>
			</g>
			<g>
				<g>
					<path style="fill:#63D5C2;" d="M249.376,1368.042c-1.178,0.059-2.356,0.117-3.534,0.175c-2.315,0.115-4.451-2.36-4.281-4.676
						c0.192-2.611,2.079-4.285,4.56-4.408c1.178-0.058,2.355-0.117,3.533-0.175c2.315-0.115,4.451,2.36,4.281,4.675
						C253.743,1366.245,251.856,1367.919,249.376,1368.042L249.376,1368.042z"/>
				</g>
			</g>
			<g>
				<g>
					<path style="fill:#63D5C2;" d="M71.24,1449.497c-6.069,2.377-11.782,5.554-17.176,9.262c-4.741,3.259-8.994-4.704-4.291-7.938
						c6.101-4.194,12.536-7.467,19.387-10.151C74.467,1438.592,76.499,1447.437,71.24,1449.497L71.24,1449.497z"/>
				</g>
			</g>
			<g>
				<g>
					<path style="fill:#63D5C2;" d="M74.762,1422.461c-1.953,0.839-3.907,1.677-5.86,2.516c-2.127,0.913-4.868,0.606-6.013-1.757
						c-0.967-1.997-0.562-5.201,1.722-6.181c1.953-0.839,3.906-1.677,5.859-2.516c2.127-0.913,4.868-0.607,6.013,1.756
						C77.451,1418.276,77.046,1421.48,74.762,1422.461L74.762,1422.461z"/>
				</g>
			</g>
			<g>
				<g>
					<path style="fill:#63D5C2;" d="M560.412,1484.356c-5.201,0.622-10.188,0.448-15.321-0.627
						c-2.339-0.489-3.608-3.449-2.965-5.651c0.737-2.523,3.159-3.549,5.506-3.058c3.483,0.729,7.16,0.933,10.699,0.51
						c2.372-0.283,4.726,0.74,5.337,3.335C564.177,1481.022,562.8,1484.071,560.412,1484.356L560.412,1484.356z"/>
				</g>
			</g>
			<g>
				<g>
					<path style="fill:#63D5C2;" d="M534.807,1466.292c-0.393,0.019-0.785,0.039-1.178,0.058c-2.315,0.115-4.452-2.36-4.281-4.676
						c0.192-2.611,2.079-4.285,4.56-4.408c0.392-0.019,0.785-0.039,1.178-0.058c2.315-0.115,4.451,2.36,4.281,4.676
						C539.174,1464.495,537.287,1466.169,534.807,1466.292L534.807,1466.292z"/>
				</g>
			</g>
			<g>
				<g>
					<path style="fill:#63D5C2;" d="M434.227,1673.804c-4.55,1.518-9.318,2.143-14.093,1.915c-5.672-0.27-5.426-9.356,0.279-9.084
						c4.057,0.193,7.869-0.369,11.734-1.657C437.564,1663.172,439.619,1672.006,434.227,1673.804L434.227,1673.804z"/>
				</g>
			</g>
			<g>
				<g>
					<path style="fill:#63D5C2;" d="M441.563,1651.871c-1.555,0.472-3.11,0.944-4.664,1.416c-2.223,0.675-4.895-1.006-5.337-3.335
						c-0.477-2.513,0.876-4.768,3.257-5.491c1.555-0.472,3.11-0.944,4.665-1.416c2.223-0.675,4.895,1.005,5.337,3.335
						C445.298,1648.892,443.944,1651.148,441.563,1651.871L441.563,1651.871z"/>
				</g>
			</g>
			<g>
				<g>
					<path style="fill:#63D5C2;" d="M374.759,1268.367c-1.583-0.35-3.167-0.7-4.75-1.05c-2.266-0.501-3.708-3.457-2.965-5.651
						c0.838-2.473,3.083-3.594,5.506-3.058c1.583,0.35,3.167,0.7,4.75,1.05c2.266,0.501,3.708,3.457,2.965,5.651
						C379.428,1267.782,377.182,1268.903,374.759,1268.367L374.759,1268.367z"/>
				</g>
			</g>
			<g>
				<g>
					<path style="fill:#63D5C2;" d="M387.267,1258.132c-0.785,0.039-1.57,0.078-2.355,0.117c-2.315,0.115-4.452-2.36-4.281-4.676
						c0.192-2.611,2.079-4.285,4.56-4.408c0.785-0.039,1.57-0.078,2.356-0.117c2.315-0.115,4.451,2.36,4.281,4.676
						C391.634,1256.336,389.747,1258.01,387.267,1258.132L387.267,1258.132z"/>
				</g>
			</g>
			<g>
				<g>
					<path style="fill:#63D5C2;" d="M44.645,1312.294c-33.913,5.829-68.378,2.425-100.446-10.289
						c-5.269-2.089-2.781-10.82,2.542-8.709c30.609,12.136,63.407,15.744,95.824,10.172
						C48.145,1302.508,50.27,1311.326,44.645,1312.294L44.645,1312.294z"/>
				</g>
			</g>
			<g>
				<path style="fill:#40A696;" d="M-161.089,1297.124l69.585,603.175c7.798-2.178,102.551-34.618,223.487-77.51
					c0,0-51.603-54.37-118.403-50.506c-15.309,0.882-25.577-12.022-32.95-32.958c-0.987-2.788-1.928-5.736-2.797-8.803
					c-11.85-40.952-15.3-104.903-22.293-159.001c-0.409-3.168-0.814-6.315-1.257-9.413c-5.612-39.894-13.643-73.051-29.168-85.393
					C-125.301,1436.727-123.97,1305.754-161.089,1297.124z"/>
			</g>
			<g>
				<g>
					<path style="fill:#63D5C2;" d="M540.364,1381.465c-0.744,39.877-36.019,67.481-71.716,73.692
						c-48.916,8.511-95.88-13.19-144.383-14.436c-53.403-1.372-101.803,29.467-148.065,53.151
						c-22.981,11.765-45.962,23.53-68.944,35.294c-22.646,11.592-45.337,23.291-69.278,31.836
						c-44.226,15.785-96.694,18.951-135.936-11.244c-4.517-3.475,0.05-11.271,4.606-7.765
						c34.526,26.566,79.888,25.784,119.62,13.405c23.449-7.305,45.59-18.299,67.49-29.461
						c22.413-11.423,44.789-22.924,67.182-34.388c41.59-21.291,84.13-48.115,130.291-57.14
						c45.684-8.931,89.217,8.065,134.246,12.597c25.034,2.52,51.7,1.135,73.681-12.775c18.205-11.521,31.946-30.558,32.366-53.033
						C531.633,1375.357,540.473,1375.604,540.364,1381.465L540.364,1381.465z"/>
				</g>
			</g>
			<g>
				<g>
					<path style="fill:#63D5C2;" d="M114.303,1697.287c-27.403,16.145-56.425,26.247-87.855,30.301
						c-30.457,4.011-61.294,3.078-91.948,2.1l2.153,9.136c58.531,1.847,117.22,1.033,170.468-27.036
						c25.997-13.776,50.687-32.264,76.695-47.656c27.544-16.383,56.537-29.096,89.459-28.485c5.687-0.016,5.894-9.137,0.205-9.122
						c-37.684-0.828-70.402,15.24-101.574,34.547C152.494,1672.793,133.621,1685.992,114.303,1697.287z"/>
				</g>
			</g>
		</g>
	</g>
	<g style="clip-path:url(#SVGID_00000158744623022475825480000017524696111724395175_);">
		<g>
			<g>
				<path style="fill:#FF8D67;" d="M1090.774,478.525c4.178-13.819,17.296-22.431,31.658-21.426
					c11.125,0.779,29.203,9.146,23.032,22.776c-3.569,7.882-11.762,10.652-18.637,14.958c-8.099,5.071-14.984,11.58-19.836,19.866
					c-9.528,16.269-10.624,35.951-10.711,54.344c-0.106,22.146,34.305,22.173,34.41,0c0.049-10.339-0.017-21.088,3.348-31.001
					c3.503-10.32,10.595-13.456,19.477-18.826c22.204-13.423,35.654-41.542,22.416-66.032
					c-12.468-23.065-41.466-33.385-66.377-29.607c-24.82,3.764-44.749,21.945-51.961,45.8
					C1051.171,490.621,1084.372,499.7,1090.774,478.525L1090.774,478.525z"/>
			</g>
		</g>
		<g>
			<g>
				<path style="fill:#FF8D67;" d="M1116.162,632.19c22.141,0,22.178-34.41,0-34.41
					C1094.021,597.78,1093.984,632.19,1116.162,632.19L1116.162,632.19z"/>
			</g>
		</g>
	</g>
	<g style="clip-path:url(#SVGID_00000158744623022475825480000017524696111724395175_);">
		<g>
			<g>
				<path style="fill:#384955;" d="M2255.541,513.618c12.853-14.569,33.529-19.195,50.982-9.934
					c15.906,8.44,32.605,31.462,15.036,46.69c-7.752,6.72-17.079,7.081-26.771,8.05c-9.824,0.982-19.179,3.29-27.448,8.925
					c-16.262,11.081-25.759,28.882-33.849,46.28c-6.051,13.013,13.287,24.424,19.377,11.326c4.856-10.444,9.93-21.379,17.426-30.237
					c8.473-10.013,17.655-13.183,30.409-14.327c24.418-2.19,49.961-16.282,50.933-43.817c0.928-26.304-21.113-49.039-44.742-56.991
					c-23.685-7.97-50.752-0.503-67.223,18.166C2230.15,508.544,2245.963,524.474,2255.541,513.618L2255.541,513.618z"/>
			</g>
		</g>
		<g>
			<g>
				<path style="fill:#384955;" d="M2224.666,677.874c14.44,0,14.464-22.441,0-22.441
					C2210.226,655.433,2210.202,677.874,2224.666,677.874L2224.666,677.874z"/>
			</g>
		</g>
	</g>
	<g style="clip-path:url(#SVGID_00000158744623022475825480000017524696111724395175_);">
		<g>
			<g>
				<path style="fill:#49B2A4;" d="M2206.502,923.232c17.74-21.288,48.879-23.437,71.661-9.654
					c22.89,13.848,39.098,46.352,6.144,59.03c-13.376,5.146-28.781,3.732-42.623,7.513c-15.973,4.362-30.83,12.794-42.913,24.104
					c-22.78,21.323-36.088,50.289-47.999,78.574c-15.646,37.156,43.709,57.158,59.286,20.166
					c7.174-17.035,14.775-35.311,27.404-49.162c14.447-15.846,32.511-14.092,52.015-17.995
					c45.981-9.201,83.162-50.099,76.052-98.599c-6.601-45.028-47.633-81.927-90.682-91.788
					c-46.144-10.57-90.319,6.804-120.153,42.604C2128.875,919.009,2180.925,953.925,2206.502,923.232L2206.502,923.232z"/>
			</g>
		</g>
		<g>
			<g>
				<path style="fill:#49B2A4;" d="M2142.825,1201.628c38.148,12.976,58.378-46.289,20.167-59.286
					C2124.844,1129.366,2104.614,1188.63,2142.825,1201.628L2142.825,1201.628z"/>
			</g>
		</g>
	</g>
	<g style="clip-path:url(#SVGID_00000158744623022475825480000017524696111724395175_);">
		<g>
			<g>
				<path style="fill:#51C6D4;" d="M689.311,695.562c-5.139-22.914,9.501-44.944,30.528-53.131
					c21.127-8.226,51.335-2.326,42.832,26.362c-3.452,11.644-12.358,21.263-16.968,32.516c-5.319,12.984-7.328,27.321-5.971,41.28
					c2.56,26.318,15.146,50.22,27.997,72.832c16.881,29.704,60.977,0.157,44.17-29.415c-7.74-13.618-16.091-28.165-18.875-43.804
					c-3.184-17.891,7.325-29.121,14.777-44.24c17.568-35.645,9.296-81.748-26.961-102.022
					c-33.661-18.822-79.645-10.315-108.505,13.514c-30.935,25.542-42.08,64.194-33.437,102.729
					C646.378,745.534,696.72,728.599,689.311,695.562L689.311,695.562z"/>
			</g>
		</g>
		<g>
			<g>
				<path style="fill:#51C6D4;" d="M843.458,882.138c28.422-18.927-0.946-63.129-29.414-44.171
					C785.622,856.894,814.989,901.096,843.458,882.138L843.458,882.138z"/>
			</g>
		</g>
	</g>
</g>
</svg>
