<svg width="18" height="18" viewBox="0 0 18 18" fill="none" xmlns="http://www.w3.org/2000/svg">
<g clip-path="url(#clip0_5138_3738)">
<path d="M17.9789 1.34386C17.9399 0.628852 17.3713 0.0602701 16.6563 0.0212466C15.2135 -0.0575737 12.3903 0.0191022 9.69076 1.4154C8.31457 2.12725 6.8591 3.33413 5.69757 4.72659C5.68326 4.74375 5.66934 4.76101 5.65514 4.7782L3.01912 4.98183C2.58522 5.01537 2.19875 5.24279 1.95877 5.60575L0.160392 8.32586C-0.0216123 8.60113 -0.0505459 8.94562 0.0829424 9.24737C0.216466 9.54915 0.490825 9.75946 0.816899 9.80998L3.03776 10.1539C3.02992 10.1971 3.02204 10.2403 3.01483 10.2834C2.9409 10.7257 3.08743 11.1804 3.40686 11.4998L6.50033 14.5933C6.76516 14.8581 7.12302 15.0041 7.4897 15.0041C7.56521 15.0041 7.64115 14.9979 7.71674 14.9853C7.75991 14.9781 7.80304 14.9702 7.84622 14.9624L8.19019 17.1833C8.2407 17.5093 8.45101 17.7837 8.75272 17.9172C8.87826 17.9728 9.01112 18.0002 9.14338 18.0002C9.32911 18.0002 9.51354 17.9461 9.67427 17.8398L12.3944 16.0414C12.7574 15.8014 12.9848 15.4149 13.0182 14.981L13.2219 12.3451C13.239 12.3309 13.2563 12.3169 13.2735 12.3026C14.666 11.1411 15.8729 9.68563 16.5847 8.3094C17.9811 5.60972 18.0576 2.7865 17.9789 1.34386ZM11.8127 15.1616L9.21077 16.8819L8.87552 14.7175C9.97521 14.3941 11.063 13.8763 12.0994 13.1826L11.9668 14.8998C11.9585 15.0069 11.9023 15.1023 11.8127 15.1616ZM7.2461 13.8475L4.1526 10.754C4.07367 10.6751 4.03718 10.5641 4.05507 10.4573C4.14704 9.90736 4.28995 9.38385 4.46686 8.89068L9.10847 13.5323C8.51615 13.7445 7.98561 13.871 7.54282 13.9451C7.4358 13.9628 7.32502 13.9265 7.2461 13.8475ZM3.10037 6.03339L4.81754 5.90074C4.12377 6.93711 3.60592 8.02495 3.28258 9.12464L1.11822 8.78943L2.83856 6.18744C2.89783 6.09779 2.99328 6.04165 3.10037 6.03339ZM12.598 11.4927C11.7461 12.2033 10.9191 12.7173 10.1568 13.0892L4.91077 7.84312C5.39797 6.84806 5.99257 6.01946 6.50747 5.40219C7.58237 4.11354 8.91926 3.00186 10.1754 2.35218C12.653 1.07063 15.2633 1.00161 16.5989 1.07432C16.7756 1.08395 16.9162 1.22454 16.9258 1.40134C16.9987 2.73686 16.9295 5.34721 15.648 7.82484C14.9983 9.08091 13.8866 10.4178 12.598 11.4927Z" fill="white"/>
<path d="M12.332 8.30545C13.007 8.30538 13.6824 8.04839 14.1963 7.53444C14.6944 7.03645 14.9686 6.37432 14.9686 5.67007C14.9686 4.96582 14.6943 4.30369 14.1963 3.8057C13.1683 2.77762 11.4956 2.77769 10.4676 3.8057C9.96957 4.30369 9.69531 4.96582 9.69531 5.67007C9.69531 6.37432 9.9696 7.03645 10.4676 7.53444C10.9816 8.04849 11.6566 8.30552 12.332 8.30545ZM11.2133 4.55143C11.5217 4.24301 11.9268 4.08881 12.3319 4.08881C12.737 4.08881 13.1421 4.24301 13.4505 4.55143C13.7493 4.85022 13.9139 5.24749 13.9139 5.67003C13.9139 6.09258 13.7493 6.48988 13.4505 6.78867C12.8337 7.40549 11.8301 7.40545 11.2133 6.78867C10.9145 6.48988 10.7499 6.09261 10.7499 5.67007C10.7499 5.24753 10.9145 4.85022 11.2133 4.55143Z" fill="white"/>
<path d="M0.535139 14.8338C0.670103 14.8338 0.805068 14.7823 0.908006 14.6793L2.62971 12.9576C2.83566 12.7517 2.83566 12.4178 2.62971 12.2118C2.4238 12.0059 2.08989 12.0059 1.88394 12.2118L0.162271 13.9335C-0.0436738 14.1395 -0.0436738 14.4734 0.162271 14.6793C0.265209 14.7823 0.400174 14.8338 0.535139 14.8338Z" fill="white"/>
<path d="M4.21033 13.7897C4.00442 13.5838 3.67051 13.5838 3.46456 13.7897L0.154459 17.0998C-0.0514863 17.3058 -0.0514863 17.6397 0.154459 17.8456C0.257432 17.9486 0.392361 18.0001 0.527326 18.0001C0.662291 18.0001 0.797256 17.9486 0.900193 17.8456L4.21029 14.5355C4.41628 14.3295 4.41628 13.9957 4.21033 13.7897Z" fill="white"/>
<path d="M5.04023 15.3675L3.31852 17.0892C3.11258 17.2951 3.11258 17.629 3.31852 17.8349C3.42149 17.9379 3.55646 17.9894 3.69139 17.9894C3.82632 17.9894 3.96132 17.938 4.06426 17.8349L5.78596 16.1132C5.99191 15.9073 5.99191 15.5734 5.78596 15.3675C5.58005 15.1615 5.24614 15.1615 5.04023 15.3675Z" fill="white"/>
</g>
<defs>
<clipPath id="clip0_5138_3738">
<rect width="18" height="18" fill="white"/>
</clipPath>
</defs>
</svg>
