<svg width="19" height="19" viewBox="0 0 19 19" fill="none" xmlns="http://www.w3.org/2000/svg">
<path d="M17.9902 16.149H17.5275V11.6C17.5272 11.3468 17.4265 11.1041 17.2475 10.9251C17.0685 10.746 16.8257 10.6454 16.5725 10.6451H10.1608C9.90736 10.6451 9.66431 10.7457 9.48493 10.9247C9.30555 11.1037 9.20449 11.3466 9.20392 11.6V11.7039C8.99817 11.5959 8.78287 11.5072 8.56078 11.4388L7.73098 10.9394V10.3131C8.50704 9.86391 9.11799 9.17693 9.47353 8.35373H9.47882C9.90641 8.35352 10.3164 8.1837 10.619 7.88154C10.9215 7.57938 11.0918 7.16954 11.0925 6.74196C11.0944 6.35306 10.9534 5.97701 10.6965 5.6851V4.91176C10.695 3.60953 10.1771 2.36105 9.25624 1.44023C8.33542 0.519408 7.08694 0.00145316 5.78471 0H5.45333C4.1511 0.00145316 2.90262 0.519408 1.9818 1.44023C1.06098 2.36105 0.543022 3.60953 0.541568 4.91176V5.68902C0.286337 5.98039 0.146077 6.35481 0.147059 6.74216C0.147786 7.16974 0.318099 7.57957 0.620629 7.88174C0.92316 8.1839 1.3332 8.35371 1.76078 8.35392H1.76608C2.12169 9.17562 2.73113 9.86182 3.5051 10.312V10.9394L2.66784 11.4414C2.66608 11.4414 2.66471 11.4443 2.66274 11.4455C1.89194 11.6907 1.21884 12.1742 0.740334 12.8263C0.261829 13.4785 0.00261133 14.2656 0 15.0745V17.9902C0 18.0812 0.036152 18.1685 0.100503 18.2328C0.164853 18.2972 0.252132 18.3333 0.343137 18.3333H16.6196C17.074 18.3328 17.5095 18.1521 17.8308 17.8308C18.1521 17.5095 18.3328 17.074 18.3333 16.6196V16.4922C18.3333 16.4012 18.2971 16.3139 18.2328 16.2496C18.1684 16.1852 18.0812 16.1491 17.9902 16.149ZM9.8902 11.6C9.89051 11.5285 9.91918 11.4601 9.96991 11.4097C10.0206 11.3593 10.0893 11.3312 10.1608 11.3314H16.5725C16.6438 11.3314 16.7121 11.3597 16.7624 11.4101C16.8128 11.4605 16.8411 11.5288 16.8412 11.6V16.149H14.4745C14.3835 16.149 14.2962 16.1852 14.2319 16.2495C14.1675 16.3139 14.1314 16.4011 14.1314 16.4922C14.1316 16.5292 14.1243 16.566 14.1098 16.6001C14.0954 16.6342 14.0742 16.6651 14.0475 16.6908C14.022 16.7164 13.9917 16.7367 13.9583 16.7504C13.9249 16.7641 13.8891 16.771 13.8529 16.7706H12.8804C12.8066 16.7705 12.7358 16.7412 12.6836 16.689C12.6314 16.6368 12.602 16.566 12.602 16.4922C12.6019 16.4012 12.5657 16.3139 12.5014 16.2496C12.4371 16.1852 12.3498 16.1491 12.2588 16.149H9.8902V11.6ZM3.79 11.5686L3.81902 11.599L5.09353 12.9324L4.00588 13.6927L3.27235 11.8794L3.79 11.5686ZM5.6202 10.8873C6.1059 10.8867 6.58784 10.8021 7.04471 10.6373V10.9937L6.94157 11.1018L5.8302 12.2647L5.61765 12.4876L4.48706 11.3039L4.19176 10.9949V10.6373C4.64993 10.8023 5.1332 10.8869 5.6202 10.8873ZM7.2298 13.6927L6.14196 12.9314L7.25961 11.7622C7.26783 11.7551 7.27568 11.7477 7.28314 11.7398L7.44647 11.5684L7.96392 11.8796L7.2298 13.6927ZM9.71039 7.6351C9.78345 7.32308 9.82088 7.00379 9.82196 6.68333V5.88196C9.99393 5.95087 10.1414 6.06955 10.2455 6.2228C10.3496 6.37605 10.4056 6.55689 10.4063 6.74216C10.4055 6.94703 10.3367 7.14584 10.2108 7.30744C10.0849 7.46903 9.90886 7.58427 9.71039 7.6351ZM5.45333 0.685294H5.78471C6.90509 0.686644 7.97919 1.13241 8.7713 1.92477C9.5634 2.71714 10.0088 3.79137 10.0098 4.91176V5.22235C9.94822 5.20072 9.88535 5.18291 9.82157 5.16902V4.26C9.82159 4.20328 9.80755 4.14745 9.78071 4.09749C9.75387 4.04752 9.71507 4.00499 9.66776 3.9737C9.62046 3.94241 9.56614 3.92333 9.50967 3.91816C9.45319 3.913 9.39631 3.92192 9.34412 3.94412C8.66103 4.23208 7.95521 4.46281 7.23392 4.63392C5.18333 5.12412 3.18216 5.12667 1.88098 4.64235C1.8291 4.62302 1.7733 4.61653 1.71837 4.62344C1.66343 4.63035 1.61098 4.65045 1.5655 4.68202C1.52002 4.7136 1.48285 4.75571 1.45717 4.80476C1.43149 4.85382 1.41807 4.90836 1.41804 4.96373V5.16824C1.3536 5.18232 1.29008 5.20033 1.22784 5.22216V4.91176C1.22888 3.79132 1.67437 2.71706 2.46655 1.92469C3.25873 1.13233 4.33289 0.686592 5.45333 0.685294ZM0.833333 6.74216C0.834057 6.55693 0.890053 6.37613 0.99415 6.22292C1.09825 6.06971 1.24571 5.95106 1.41765 5.88216V6.68333C1.41869 7.00381 1.45625 7.32313 1.52961 7.6351C1.33107 7.58435 1.15499 7.46914 1.02898 7.30753C0.902968 7.14593 0.834156 6.94708 0.833333 6.74216ZM2.30961 7.87431C2.17338 7.49202 2.10381 7.08917 2.10392 6.68333V5.43255C3.50941 5.81157 5.44118 5.76804 7.39412 5.30137C7.98531 5.16036 8.56699 4.98209 9.13569 4.76765V6.68333C9.13613 7.08851 9.06702 7.49076 8.93137 7.87255C8.68654 8.55421 8.23725 9.14367 7.64487 9.56042C7.05248 9.97718 6.34588 10.2009 5.62159 10.201C4.89729 10.2012 4.19062 9.97768 3.59808 9.56114C3.00555 9.1446 2.55605 8.5553 2.31098 7.87372L2.30961 7.87431ZM0.686274 15.0745C0.688026 14.4506 0.875858 13.8414 1.22574 13.3248C1.57563 12.8083 2.07166 12.4078 2.65039 12.1747L3.53059 14.3512C3.54993 14.3991 3.57983 14.442 3.61806 14.4767C3.65628 14.5114 3.70185 14.5371 3.75137 14.5518H3.75314C3.78151 14.5596 3.81076 14.5638 3.8402 14.5643C3.84294 14.5643 3.84588 14.5655 3.84863 14.5655C3.85137 14.5655 3.85941 14.5633 3.8649 14.5631C3.88894 14.562 3.9128 14.5583 3.93608 14.5522C3.94451 14.55 3.95255 14.548 3.96059 14.5453C3.99091 14.5354 4.01969 14.5213 4.04608 14.5033L5.50863 13.4798L5.61725 13.4039L7.18902 14.5033L7.19196 14.5047C7.21707 14.5214 7.24431 14.5346 7.27294 14.5439C7.28196 14.5471 7.29098 14.5492 7.30039 14.5516C7.32271 14.5574 7.34558 14.561 7.36863 14.5622C7.37451 14.5622 7.38 14.5647 7.38588 14.5647C7.39176 14.5647 7.39196 14.5635 7.3951 14.5635C7.42493 14.5631 7.45459 14.5588 7.48333 14.5508C7.53286 14.5362 7.57846 14.5106 7.61672 14.476C7.65498 14.4413 7.68493 14.3984 7.70431 14.3506L8.58667 12.1718C8.80431 12.2586 9.01139 12.3699 9.20392 12.5035V16.149H8.74314C8.65213 16.149 8.56485 16.1852 8.5005 16.2495C8.43615 16.3139 8.4 16.4011 8.4 16.4922V16.6196C8.40009 16.9905 8.52119 17.3512 8.7449 17.6471H0.686274V15.0745ZM16.6196 17.6471H10.1118C9.87704 17.6466 9.64953 17.5659 9.4671 17.4182C9.28466 17.2705 9.15829 17.0648 9.10902 16.8353H11.9786C12.0484 17.018 12.172 17.1753 12.333 17.2862C12.4941 17.3972 12.685 17.4567 12.8806 17.4569H13.8529C14.0484 17.4562 14.2391 17.3965 14.4 17.2855C14.561 17.1746 14.6847 17.0177 14.7549 16.8353H17.6237C17.5741 17.0649 17.4474 17.2706 17.2648 17.4182C17.0821 17.5659 16.8545 17.6466 16.6196 17.6471Z" fill="white"/>
</svg>
