<svg width="24" height="24" viewBox="0 0 24 24" fill="none" xmlns="http://www.w3.org/2000/svg">
<path d="M5.53465 17.0806C5.29075 17.0806 5.0473 16.9854 4.86463 16.7959L0.862275 12.6459C0.514658 12.2856 0.514658 11.7144 0.862275 11.354L4.86463 7.20399C5.22157 6.83366 5.81058 6.82321 6.18058 7.18014C6.55046 7.53684 6.56114 8.12597 6.20443 8.49586L2.82506 12L6.20443 15.5041C6.56114 15.874 6.55046 16.4631 6.18058 16.8198C5.99995 16.9941 5.76719 17.0806 5.53465 17.0806Z" fill="white"/>
<path d="M18.4695 17.0806C18.237 17.0806 18.0042 16.994 17.8236 16.8198C17.4537 16.4631 17.4431 15.8739 17.7998 15.504L21.1791 11.9999L17.7998 8.49582C17.4431 8.12594 17.4537 7.53681 17.8236 7.1801C18.1936 6.82295 18.7825 6.83362 19.1396 7.20396L23.1419 11.354C23.4895 11.7143 23.4895 12.2855 23.1419 12.6459L19.1396 16.7959C18.9569 16.9854 18.7133 17.0806 18.4695 17.0806Z" fill="white"/>
<path d="M8.83638 19.2735C8.69688 19.2735 8.55534 19.2419 8.42197 19.1756C7.962 18.9463 7.7749 18.3877 8.00415 17.9276L14.3253 5.24208C14.5546 4.782 15.1135 4.59524 15.5733 4.82426C16.0333 5.0535 16.2204 5.61219 15.9911 6.07227L9.66998 18.7578C9.50719 19.0845 9.17809 19.2735 8.83638 19.2735Z" fill="white"/>
</svg>
