<svg width="20" height="20" viewBox="0 0 20 20" fill="none" xmlns="http://www.w3.org/2000/svg">
<g clip-path="url(#clip0_5138_3773)">
<path d="M7.5026 8.33333C5.2051 8.33333 3.33594 6.46417 3.33594 4.16667C3.33594 1.86917 5.2051 0 7.5026 0C9.8001 0 11.6693 1.86917 11.6693 4.16667C11.6693 6.46417 9.8001 8.33333 7.5026 8.33333ZM7.5026 0.833333C5.66427 0.833333 4.16927 2.32833 4.16927 4.16667C4.16927 6.005 5.66427 7.5 7.5026 7.5C9.34094 7.5 10.8359 6.005 10.8359 4.16667C10.8359 2.32833 9.34094 0.833333 7.5026 0.833333Z" fill="white"/>
<path d="M7.08333 17.5H0.416667C0.186667 17.5 0 17.3133 0 17.0833V13.75C0 11.6825 1.6825 10 3.75 10H8.75C8.98 10 9.16667 10.1867 9.16667 10.4167C9.16667 10.6467 8.98 10.8333 8.75 10.8333H3.75C2.14167 10.8333 0.833333 12.1417 0.833333 13.75V16.6667H7.08333C7.31333 16.6667 7.5 16.8533 7.5 17.0833C7.5 17.3133 7.31333 17.5 7.08333 17.5Z" fill="white"/>
<path d="M14.1693 16.6667C13.0209 16.6667 12.0859 15.7317 12.0859 14.5833C12.0859 13.435 13.0209 12.5 14.1693 12.5C15.3176 12.5 16.2526 13.435 16.2526 14.5833C16.2526 15.7317 15.3176 16.6667 14.1693 16.6667ZM14.1693 13.3333C13.4801 13.3333 12.9193 13.8942 12.9193 14.5833C12.9193 15.2725 13.4801 15.8333 14.1693 15.8333C14.8584 15.8333 15.4193 15.2725 15.4193 14.5833C15.4193 13.8942 14.8584 13.3333 14.1693 13.3333Z" fill="white"/>
<path d="M14.8303 20H13.5011C13.0711 20 12.7145 19.6775 12.672 19.2491L12.5661 18.19C12.3136 18.0775 12.0728 17.9375 11.8453 17.7708L10.872 18.21C10.4811 18.3883 10.022 18.2391 9.8078 17.8666L9.14364 16.7158C8.92864 16.3433 9.0303 15.8733 9.37864 15.6225L10.2361 15.0058C10.2195 14.8766 10.2078 14.7333 10.2078 14.5833C10.2078 14.4333 10.2195 14.2891 10.2361 14.1608L9.37864 13.5441C9.0303 13.2933 8.92864 12.8233 9.14364 12.4508L9.8078 11.3C10.0228 10.9275 10.4795 10.78 10.872 10.9566L11.8453 11.3958C12.0728 11.2291 12.3136 11.0891 12.5661 10.9766L12.672 9.91748C12.7145 9.48998 13.0711 9.16748 13.5011 9.16748H14.8303C15.2603 9.16748 15.617 9.48998 15.6595 9.91831L15.7653 10.9775C16.0186 11.09 16.2595 11.2308 16.4861 11.3966L17.4595 10.9575C17.852 10.7816 18.3095 10.9291 18.5236 11.3008L19.1878 12.4516C19.4028 12.8241 19.3011 13.2941 18.9528 13.545L18.0953 14.1616C18.112 14.2908 18.1236 14.4341 18.1236 14.5841C18.1236 14.7341 18.112 14.8783 18.0953 15.0066L18.9528 15.6233C19.3011 15.8741 19.4028 16.3441 19.1878 16.7166L18.5245 17.8666C18.3095 18.2383 17.8536 18.3875 17.4603 18.21L16.487 17.7708C16.2595 17.9375 16.0186 18.0775 15.7661 18.19L15.6595 19.25C15.617 19.6775 15.2603 20 14.8303 20ZM11.9036 16.8708C11.9995 16.8708 12.0945 16.9041 12.1711 16.9683C12.4536 17.205 12.7661 17.3858 13.0986 17.5075C13.2486 17.5625 13.3545 17.6983 13.3703 17.8575L13.502 19.1666H14.8311L14.962 17.8575C14.9778 17.6983 15.0836 17.5625 15.2336 17.5075C15.5661 17.3858 15.8786 17.2041 16.1611 16.9683C16.2845 16.8658 16.4545 16.8425 16.5995 16.9083L17.8028 17.4516L18.467 16.3008L17.402 15.5358C17.272 15.4425 17.2078 15.2825 17.2345 15.125C17.2653 14.9491 17.2903 14.77 17.2903 14.585C17.2903 14.4 17.2653 14.2208 17.2345 14.045C17.207 13.8875 17.272 13.7283 17.402 13.6341L18.467 12.8691L17.8028 11.7183L16.5995 12.2608C16.4536 12.3266 16.2836 12.3033 16.1603 12.2008C15.8786 11.9641 15.567 11.7833 15.2328 11.6616C15.0828 11.6066 14.977 11.4708 14.9611 11.3116L14.8303 9.99998H13.5011L13.3703 11.3091C13.3545 11.4683 13.2486 11.6041 13.0986 11.6591C12.7661 11.7808 12.4536 11.9625 12.1711 12.1983C12.0486 12.3008 11.8786 12.325 11.7328 12.2583L10.5295 11.715L9.8653 12.8658L10.9303 13.6308C11.0603 13.7241 11.1245 13.8841 11.0978 14.0416C11.067 14.2175 11.042 14.3966 11.042 14.5816C11.042 14.7666 11.067 14.9458 11.0978 15.1216C11.1253 15.2791 11.0603 15.4383 10.9303 15.5325L9.8653 16.2975L10.5295 17.4483L11.7328 16.9058C11.7878 16.8825 11.8453 16.8708 11.9036 16.8708Z" fill="white"/>
</g>
<defs>
<clipPath id="clip0_5138_3773">
<rect width="20" height="20" fill="white"/>
</clipPath>
</defs>
</svg>
